<svg height="14" viewBox="0 0 14 14" width="14" xmlns="http://www.w3.org/2000/svg"><path d="m9.95856088 8.72112401 3.66015752 3.66015759c.3417088.3417087.3417088.8957281 0 1.2374368-.3417087.3417088-.8957281.3417088-1.2374368 0l-3.66015759-3.66015752c-.90534437.65521472-2.01813042 1.04143912-3.22112401 1.04143912-3.03756612 0-5.5-2.46243388-5.5-5.5s2.46243388-5.5 5.5-5.5 5.5 2.46243388 5.5 5.5c0 1.20299359-.3862244 2.31577964-1.04143912 3.22112401zm-4.45856088.52887599c2.07106781 0 3.75-1.67893219 3.75-3.75s-1.67893219-3.75-3.75-3.75-3.75 1.67893219-3.75 3.75 1.67893219 3.75 3.75 3.75z" fill="#86a1bf"/></svg>